<svg width="30" height="28" viewBox="0 0 30 28" fill="none" xmlns="http://www.w3.org/2000/svg">
<path d="M28.2309 12.4808C28.3379 12.0705 28.392 11.6484 28.3919 11.2246C28.3919 9.41992 27.4715 7.7793 25.9798 6.81625C25.9572 4.64352 24.3579 2.835 22.2596 2.45328C21.5002 0.971797 19.9511 0 18.2162 0C16.961 0 15.8233 0.504219 15 1.31797C14.1767 0.504219 13.039 0 11.7838 0C10.0494 0 8.49982 0.971797 7.74099 2.45328C5.64265 2.835 4.04283 4.64352 4.02077 6.81625C2.52849 7.7793 1.60864 9.41992 1.60864 11.2246C1.60864 11.6473 1.66213 12.0679 1.76967 12.4808C0.658456 13.4712 0 14.8859 0 16.3789C0 18.1825 0.922059 19.8259 2.41213 20.7889C2.43805 23.3866 4.53309 25.5057 7.14651 25.6167C8.025 27.0747 9.62096 28 11.3818 28C12.814 28 14.0956 27.3875 15 26.4255C15.9044 27.3875 17.186 28 18.6182 28C20.379 28 21.975 27.0747 22.8535 25.6167C25.4669 25.5057 27.5619 23.3866 27.5879 20.7889C29.0779 19.8259 30 18.1825 30 16.3789C30 14.8859 29.3415 13.4712 28.2309 12.4808ZM13.6693 7.5507C13.6693 8.9775 12.6717 10.1691 11.3294 10.506C11.1375 10.5541 11.0074 10.7297 11.0074 10.9249V11.8098C11.0074 12.087 11.2665 12.297 11.5423 12.2413C12.3397 12.0805 13.0638 11.7266 13.6693 11.2355V23.1191C13.6693 24.3633 12.6436 25.375 11.3818 25.375C9.56581 25.375 9.20515 23.7645 8.86544 22.7708L7.74761 22.9545C6.42353 23.1705 5.07353 22.1162 5.07353 20.7408C5.07353 20.5888 5.32996 19.2412 5.32996 19.2412L4.32353 18.8289C2.28805 17.9971 2.04761 15.2124 4.02187 14.0924L5.09945 13.4805L4.55349 12.3791C3.58566 10.4267 5.18272 9.07977 5.93989 8.77297L6.98327 8.35023C6.70588 7.15258 6.68162 7.10336 6.68162 6.86328C6.68162 5.83789 7.52702 5.00391 8.4386 4.99625L9.70037 5.06187L9.96728 4.02555C10.1807 3.20086 10.9274 2.625 11.7838 2.625C12.8239 2.625 13.6693 3.45898 13.6693 4.48438V7.5507ZM25.6765 18.8289L24.6695 19.2407C24.6695 19.2407 24.9259 20.5882 24.9259 20.7402C24.9259 22.1162 23.5759 23.1705 22.2518 22.954L21.134 22.7702C20.7949 23.7639 20.4336 25.3745 18.6176 25.3745C17.3559 25.3745 16.3301 24.3627 16.3301 23.1186V11.235C16.9351 11.7261 17.6597 12.0799 18.4572 12.2407C18.7329 12.2965 18.9921 12.0865 18.9921 11.8092V10.9244C18.9921 10.7291 18.8619 10.5536 18.67 10.5055C17.3283 10.1686 16.3301 8.97695 16.3301 7.55016V4.48438C16.3301 3.45898 17.1756 2.625 18.2156 2.625C19.0715 2.625 19.8188 3.20086 20.0316 4.02555L20.2985 5.06187L21.5603 4.99625C22.4719 5.00391 23.3173 5.83789 23.3173 6.86328C23.3173 7.10336 23.293 7.15258 23.0156 8.35023L24.059 8.77297C24.8162 9.07922 26.4132 10.4262 25.4454 12.3791L24.8994 13.4805L25.977 14.0924C27.9524 15.2124 27.7119 17.9971 25.6765 18.8289Z" fill="#77879B"/>
</svg>
