<svg width="27" height="20" viewBox="0 0 27 20" fill="none" xmlns="http://www.w3.org/2000/svg">
<g clip-path="url(#clip0)">
<path d="M1.14956 9.9417C4.2311 12.9171 7.31264 15.8943 10.3932 18.8697C10.5756 19.047 10.8746 19.0398 11.0579 18.8697C15.9932 14.2945 20.9286 9.71754 25.8639 5.14147C26.0416 4.97582 26.0491 4.66883 25.8639 4.50498C24.5845 3.37964 23.3041 2.25431 22.0247 1.12897C21.8329 0.959721 21.5509 0.954319 21.3601 1.12897C18.3396 3.8973 15.3201 6.66563 12.2997 9.43485C11.7328 9.95431 11.1669 10.4729 10.6001 10.9914C10.1695 11.3866 10.6903 10.8348 11.0315 11.1571C10.7749 10.9158 10.5183 10.6736 10.2616 10.4306C8.6983 8.95591 7.13591 7.48037 5.57352 6.00483C5.38551 5.82658 5.09878 5.83828 4.90889 6.00483C3.65578 7.10496 2.40173 8.20509 1.14863 9.30521C0.700214 9.69863 1.36766 10.3333 1.81325 9.9417C2.60385 9.2476 3.39539 8.55349 4.18598 7.85938C4.60055 7.49567 4.80957 7.28354 5.22414 6.91983C6.9266 8.52681 8.69078 10.2109 10.3932 11.8179C10.5784 11.9916 10.8717 11.988 11.0579 11.8179C14.5107 8.65162 17.9636 5.48717 21.4174 2.32183C21.6017 2.15258 21.7878 1.98333 21.972 1.81408C21.6505 2.10846 21.1476 1.57731 21.8968 2.2381C22.9488 3.16268 24.0007 4.08726 25.0517 5.01183C25.3394 5.26481 25.4202 4.29972 25.0423 4.64992C24.7875 4.88489 24.5356 5.11986 24.2808 5.35483C23.4056 6.16598 22.5304 6.97802 21.6552 7.79006C17.9147 11.2597 14.1723 14.7284 10.4327 18.1963C10.6677 17.9802 11.2863 18.4546 10.8219 18.0063C10.5361 17.7299 10.2513 17.4562 9.96551 17.1799C8.89853 16.1491 7.83156 15.1192 6.76458 14.0883C5.11382 12.494 3.46307 10.8987 1.81231 9.30521C1.38646 8.89199 0.721835 9.52938 1.14956 9.9417Z" fill="#BDBDBD" stroke="#BDBDBD" stroke-width="0.5"/>
</g>
<defs>
<clipPath id="clip0">
<rect width="26.589" height="19.984" fill="white"/>
</clipPath>
</defs>
</svg>
