<svg width="17" height="17" viewBox="0 0 17 17" fill="none" xmlns="http://www.w3.org/2000/svg">
<path d="M11.05 10.625H12.325C12.5375 10.625 12.75 10.4125 12.75 10.2V5.7375C12.75 5.525 12.5375 5.3125 12.325 5.3125H11.05C10.8375 5.3125 10.625 5.525 10.625 5.7375V10.2C10.625 10.4125 10.8375 10.625 11.05 10.625ZM14.2375 10.625H15.5125C15.725 10.625 15.9375 10.4125 15.9375 10.2V2.55C15.9375 2.3375 15.725 2.125 15.5125 2.125H14.2375C14.025 2.125 13.8125 2.3375 13.8125 2.55V10.2C13.8125 10.4125 14.025 10.625 14.2375 10.625ZM4.675 10.625H5.95C6.1625 10.625 6.375 10.4125 6.375 10.2V7.8625C6.375 7.65 6.1625 7.4375 5.95 7.4375H4.675C4.4625 7.4375 4.25 7.65 4.25 7.8625V10.2C4.25 10.4125 4.4625 10.625 4.675 10.625ZM7.8625 10.625H9.1375C9.35 10.625 9.5625 10.4125 9.5625 10.2V3.6125C9.5625 3.4 9.35 3.1875 9.1375 3.1875H7.8625C7.65 3.1875 7.4375 3.4 7.4375 3.6125V10.2C7.4375 10.4125 7.65 10.625 7.8625 10.625ZM16.4688 12.75H2.125V2.65625C2.125 2.36273 1.88727 2.125 1.59375 2.125H0.53125C0.237734 2.125 0 2.36273 0 2.65625V13.8125C0 14.3992 0.475801 14.875 1.0625 14.875H16.4688C16.7623 14.875 17 14.6373 17 14.3438V13.2812C17 12.9877 16.7623 12.75 16.4688 12.75Z" fill="#696969"/>
</svg>
