<svg width="13" height="15" viewBox="0 0 13 15" fill="none" xmlns="http://www.w3.org/2000/svg">
<path d="M4.29464 8.67974H3.13393C2.94241 8.67974 2.78571 8.53218 2.78571 8.35182V7.25872C2.78571 7.07836 2.94241 6.93079 3.13393 6.93079H4.29464C4.48616 6.93079 4.64286 7.07836 4.64286 7.25872V8.35182C4.64286 8.53218 4.48616 8.67974 4.29464 8.67974ZM7.42857 8.35182V7.25872C7.42857 7.07836 7.27187 6.93079 7.08036 6.93079H5.91964C5.72813 6.93079 5.57143 7.07836 5.57143 7.25872V8.35182C5.57143 8.53218 5.72813 8.67974 5.91964 8.67974H7.08036C7.27187 8.67974 7.42857 8.53218 7.42857 8.35182ZM10.2143 8.35182V7.25872C10.2143 7.07836 10.0576 6.93079 9.86607 6.93079H8.70536C8.51384 6.93079 8.35714 7.07836 8.35714 7.25872V8.35182C8.35714 8.53218 8.51384 8.67974 8.70536 8.67974H9.86607C10.0576 8.67974 10.2143 8.53218 10.2143 8.35182ZM7.42857 10.9752V9.88215C7.42857 9.70179 7.27187 9.55422 7.08036 9.55422H5.91964C5.72813 9.55422 5.57143 9.70179 5.57143 9.88215V10.9752C5.57143 11.1556 5.72813 11.3032 5.91964 11.3032H7.08036C7.27187 11.3032 7.42857 11.1556 7.42857 10.9752ZM4.64286 10.9752V9.88215C4.64286 9.70179 4.48616 9.55422 4.29464 9.55422H3.13393C2.94241 9.55422 2.78571 9.70179 2.78571 9.88215V10.9752C2.78571 11.1556 2.94241 11.3032 3.13393 11.3032H4.29464C4.48616 11.3032 4.64286 11.1556 4.64286 10.9752ZM10.2143 10.9752V9.88215C10.2143 9.70179 10.0576 9.55422 9.86607 9.55422H8.70536C8.51384 9.55422 8.35714 9.70179 8.35714 9.88215V10.9752C8.35714 11.1556 8.51384 11.3032 8.70536 11.3032H9.86607C10.0576 11.3032 10.2143 11.1556 10.2143 10.9752ZM13 3.87012V13.4894C13 14.2135 12.3761 14.8011 11.6071 14.8011H1.39286C0.623884 14.8011 0 14.2135 0 13.4894V3.87012C0 3.14594 0.623884 2.5584 1.39286 2.5584H2.78571V1.13738C2.78571 0.957016 2.94241 0.809448 3.13393 0.809448H4.29464C4.48616 0.809448 4.64286 0.957016 4.64286 1.13738V2.5584H8.35714V1.13738C8.35714 0.957016 8.51384 0.809448 8.70536 0.809448H9.86607C10.0576 0.809448 10.2143 0.957016 10.2143 1.13738V2.5584H11.6071C12.3761 2.5584 13 3.14594 13 3.87012ZM11.6071 13.3254V5.18184H1.39286V13.3254C1.39286 13.4156 1.47121 13.4894 1.56696 13.4894H11.433C11.5288 13.4894 11.6071 13.4156 11.6071 13.3254Z" fill="#878787"/>
</svg>
