<?xml version="1.0" encoding="utf-8"?>
<!-- Generator: Adobe Illustrator 16.0.0, SVG Export Plug-In . SVG Version: 6.00 Build 0)  -->
<!DOCTYPE svg PUBLIC "-//W3C//DTD SVG 1.0//EN" "http://www.w3.org/TR/2001/REC-SVG-20010904/DTD/svg10.dtd">
<svg version="1.0" id="Layer_1" xmlns="http://www.w3.org/2000/svg" xmlns:xlink="http://www.w3.org/1999/xlink" x="0px" y="0px"
	 width="26.419px" height="18.34px" viewBox="110.79 5.33 26.419 18.34" enable-background="new 110.79 5.33 26.419 18.34"
	 xml:space="preserve">
<g>
	<g>
		<g>
			<g>
				<path fill="#BDBDBD" d="M117.961,17.846c0-4.021,0-8.044,0-12.067c-0.166,0.167-0.332,0.333-0.5,0.5c6.418,0,12.834,0,19.25,0
					c-0.166-0.167-0.332-0.333-0.5-0.5c0,4.417,0,8.833,0,13.249c0.168-0.166,0.334-0.332,0.5-0.5c-5.067,0-10.137,0-15.205,0
					c-0.645,0-0.645,1,0,1c5.068,0,10.138,0,15.205,0c0.273,0,0.5-0.227,0.5-0.5c0-4.416,0-8.832,0-13.249
					c0-0.272-0.227-0.5-0.5-0.5c-6.416,0-12.832,0-19.25,0c-0.271,0-0.5,0.228-0.5,0.5c0,4.022,0,8.045,0,12.067
					C116.961,18.49,117.961,18.49,117.961,17.846L117.961,17.846z"/>
			</g>
		</g>
		<g>
			<g>
				<path fill="#BDBDBD" d="M117.627,6.543c6.109,4.167,12.222,8.333,18.332,12.5c0.535,0.365,1.033-0.502,0.505-0.863
					c-6.11-4.166-12.222-8.332-18.333-12.499C117.597,5.315,117.098,6.183,117.627,6.543L117.627,6.543z"/>
			</g>
		</g>
		<g>
			<g>
				<path fill="#BDBDBD" d="M136.205,6.032c-3.697,2.344-7.39,4.695-11.09,7.03c-0.545,0.343-0.043,1.208,0.504,0.863
					c3.701-2.335,7.394-4.687,11.09-7.03C137.252,6.55,136.75,5.685,136.205,6.032L136.205,6.032z"/>
			</g>
		</g>
	</g>
	<g>
		<g>
			<path fill="#BDBDBD" d="M110.947,17.807c1.907,1.924,3.814,3.848,5.723,5.771c0.193,0.195,0.512,0.188,0.707,0
				c3.055-2.959,6.109-5.916,9.164-8.873c0.188-0.184,0.197-0.525,0-0.708c-0.793-0.727-1.584-1.455-2.377-2.182
				c-0.203-0.188-0.504-0.194-0.707,0c-1.84,1.762-3.682,3.524-5.522,5.286c-0.354,0.338-0.708,0.676-1.062,1.016
				c-0.428,0.408,0.117-0.188,0.461,0.15c-0.186-0.18-0.368-0.361-0.553-0.543c-0.934-0.92-1.867-1.84-2.8-2.759
				c-0.2-0.196-0.505-0.187-0.706,0c-0.775,0.712-1.553,1.423-2.328,2.134c-0.477,0.438,0.232,1.143,0.707,0.707
				c0.504-0.461,1.006-0.922,1.508-1.383c0.252-0.23,0.504-0.461,0.754-0.691c-0.37,0.342-0.866-0.281-0.289,0.287
				c1.016,1,2.029,2,3.043,2.998c0.197,0.195,0.509,0.189,0.707,0c2.146-2.053,4.291-4.104,6.437-6.158
				c0.581-0.557-0.575-0.538,0.158,0.135c0.599,0.55,1.196,1.1,1.796,1.649c-0.357-0.328,0.311-0.882-0.218-0.371
				c-0.242,0.234-0.483,0.469-0.726,0.704c-0.783,0.756-1.565,1.516-2.35,2.272c-1.924,1.861-3.848,3.725-5.77,5.586
				c0.369-0.357,0.895,0.26,0.442-0.193c-0.2-0.203-0.401-0.406-0.603-0.607c-0.62-0.625-1.239-1.25-1.859-1.875
				c-1.011-1.02-2.021-2.037-3.031-3.059C111.201,16.643,110.494,17.35,110.947,17.807z"/>
		</g>
	</g>
</g>
</svg>
