<svg width="19" height="18" viewBox="0 0 19 18" fill="none" xmlns="http://www.w3.org/2000/svg">
<path d="M16.9643 0H2.03571C0.91183 0 0 0.863839 0 1.92857V16.0714C0 17.1362 0.91183 18 2.03571 18H16.9643C18.0882 18 19 17.1362 19 16.0714V1.92857C19 0.863839 18.0882 0 16.9643 0ZM17.6429 16.0714C17.6429 16.425 17.3375 16.7143 16.9643 16.7143H2.03571C1.6625 16.7143 1.35714 16.425 1.35714 16.0714V1.92857C1.35714 1.575 1.6625 1.28571 2.03571 1.28571H16.9643C17.3375 1.28571 17.6429 1.575 17.6429 1.92857V16.0714ZM14.7971 3.04152C14.1355 2.41473 13.0625 2.41473 12.3967 3.04152L3.05357 11.8929L2.71853 14.7616C2.67187 15.1473 3.0154 15.4687 3.42254 15.4286L6.44643 15.1071L15.7895 6.2558C16.4511 5.62902 16.4511 4.6125 15.7895 3.9817L14.7971 3.04152V3.04152ZM5.82299 13.8777L4.16473 14.0504L4.3471 12.4795L11.2473 5.94241L12.719 7.33661L5.82299 13.8777V13.8777ZM14.831 5.34777L13.6859 6.43259L12.2143 5.03839L13.3594 3.95357C13.4908 3.82902 13.7071 3.82902 13.8386 3.95357L14.831 4.89375C14.9625 5.0183 14.9625 5.22321 14.831 5.34777V5.34777Z" fill="#BDBDBD"/>
</svg>
