<svg width="65" height="66" xmlns="http://www.w3.org/2000/svg">

 <g>
  <title>background</title>
  <rect fill="none" id="canvas_background" height="68" width="67" y="-1" x="-1"/>
 </g>
 <g>
  <title>Layer 1</title>
  <g id="#ffffffff"/>
  <g id="#97c33aff">
   <path id="svg_1" d="m27.33,10.4c9.63,-1.99 20.2,2.54 25.19,11.04c5.77,9.14 4.26,22.05 -3.49,29.59c-10.6,11.32 -31.48,8.29 -38.26,-5.71c-7.79,-13.45 1.18,-32.49 16.56,-34.92m0.03,2.03c-8.86,1.84 -16.03,9.54 -17.21,18.51c-1.68,10.54 5.47,21.47 15.75,24.25c13.06,4.29 27.93,-6.46 28.12,-20.15c1.15,-13.88 -13.13,-26.02 -26.66,-22.61z" fill="#97c33a"/>
   <path id="svg_2" d="m22.45,24.48c3.6,-1.76 6.22,4.42 2.43,5.62c-3.77,1.97 -5.95,-4.21 -2.43,-5.62z" fill="#97c33a"/>
   <path id="svg_3" d="m39.42,24.4c3.81,-1.55 5.69,5.48 1.59,5.9c-3.79,1.1 -5.3,-4.98 -1.59,-5.9z" fill="#97c33a"/>
   <path id="svg_4" d="m21.11,39.21c1.3,-0.37 1.42,1.82 2.23,2.49c3.59,6.43 14.56,5.85 17.76,-0.7c0.57,-1.21 1.53,-2.34 2.64,-0.93c-2.96,10.9 -20.53,10.8 -23.57,-0.02c0.24,-0.21 0.71,-0.63 0.94,-0.84z" fill="#97c33a"/>
  </g>
  <g id="#c2c3bfff">
   <path id="svg_5" d="m101.34,10.39c11.74,-2.63 24.39,5.12 27.69,16.6c3.01,9.51 -0.62,20.49 -8.71,26.32c-10.71,8.53 -27.98,5.04 -34.86,-6.72c-8.97,-13.44 -0.03,-33.68 15.88,-36.2m0.95,1.99c-14.27,1.92 -22.92,19.52 -15.67,32c6.13,12.09 23.99,15.59 33.82,6.03c9.08,-7.37 10.06,-22.42 1.97,-30.86c-4.83,-5.77 -12.75,-8.49 -20.12,-7.17z" fill="#c2c3bf"/>
   <path id="svg_6" d="m175.34,10.39c11.17,-2.47 23.17,4.36 27.15,14.98c3.41,8.86 1.16,19.72 -6.03,26.09c-8.45,8.59 -23.72,8.8 -32.42,0.46c-5.71,-4.88 -8.72,-12.54 -8,-20.01c0.67,-10.39 9.09,-19.65 19.3,-21.52m0.95,1.99c-14.26,1.93 -22.92,19.51 -15.66,32c6.13,12.09 23.97,15.58 33.81,6.03c9.08,-7.37 10.06,-22.41 1.97,-30.85c-4.82,-5.78 -12.75,-8.49 -20.12,-7.18z" fill="#c2c3bf"/>
  </g>
 </g>
</svg>