<svg width="50" height="49" viewBox="0 0 50 49" fill="none" xmlns="http://www.w3.org/2000/svg">
<path d="M20.33 1.39999C29.96 -0.590005 40.53 3.94 45.52 12.44C51.29 21.58 49.78 34.49 42.03 42.03C31.43 53.35 10.55 50.32 3.76997 36.32C-4.02003 22.87 4.94997 3.82999 20.33 1.39999ZM20.36 3.43C11.5 5.27 4.32997 12.97 3.14997 21.94C1.46997 32.48 8.61997 43.41 18.9 46.19C31.96 50.48 46.83 39.73 47.02 26.04C48.17 12.16 33.89 0.0199952 20.36 3.43Z" fill="#97C33A"/>
<path d="M15.45 15.48C19.05 13.72 21.67 19.9 17.88 21.1C14.11 23.07 11.93 16.89 15.45 15.48Z" fill="#97C33A"/>
<path d="M32.42 15.4C36.23 13.85 38.11 20.88 34.01 21.3C30.22 22.4 28.71 16.32 32.42 15.4Z" fill="#97C33A"/>
<path d="M14.1099 30.21C15.4099 29.84 15.5299 32.03 16.3399 32.7C19.9299 39.13 30.8999 38.55 34.0999 32C34.6699 30.79 35.6299 29.66 36.7399 31.07C33.7799 41.97 16.2099 41.87 13.1699 31.05C13.4099 30.84 13.8799 30.42 14.1099 30.21Z" fill="#97C33A"/>
</svg>
