<svg width="65" height="66" xmlns="http://www.w3.org/2000/svg">

 <g>
  <title>background</title>
  <rect fill="none" id="canvas_background" height="68" width="67" y="-1" x="-1"/>
 </g>
 <g>
  <title>Layer 1</title>
  <g id="#ffffffff"/>
  <g id="#bdbdbdff">
   <path id="svg_1" d="m-45.64,8.42c7.95,-1.53 16.64,1.03 22.06,7.15c9.15,8.94 8.66,25.45 -0.99,33.85c-10.07,10.4 -29.04,7.98 -36.56,-4.29c-9.52,-13.36 -0.66,-34.18 15.49,-36.71m0.91,1.91c-15.11,2.01 -23.69,21.58 -14.5,33.9c6.82,10.8 23.46,13.18 32.69,4.19c9.1,-7.36 10.12,-22.45 1.97,-30.87c-4.82,-5.79 -12.77,-8.57 -20.16,-7.22z" fill="#bdbdbd"/>
   <path id="svg_2" d="m102.36,8.42c7.95,-1.52 16.64,1.02 22.06,7.14c9.14,8.96 8.66,25.45 -0.98,33.86c-10.08,10.4 -29.06,7.98 -36.57,-4.3c-9.53,-13.35 -0.66,-34.16 15.49,-36.7m0.91,1.92c-15.4,2 -23.91,22.28 -14.07,34.48c7.12,10.6 23.85,12.39 32.77,3.13c8.89,-7.62 9.39,-22.75 0.99,-30.91c-4.82,-5.49 -12.55,-7.99 -19.69,-6.7z" fill="#bdbdbd"/>
  </g>
  <g id="#328bdfff">
   <path id="svg_3" d="m28.32,8.4c9.4,-1.92 19.71,2.3 24.83,10.45c6.32,9.34 4.73,23.03 -3.61,30.64c-10.74,10.84 -31.11,7.59 -37.78,-6.18c-7.78,-13.45 1.19,-32.48 16.56,-34.91m0.04,2.03c-10.26,2.07 -18.09,12.15 -17.38,22.61c0.29,11.01 9.96,20.7 20.98,20.98c11.02,0.77 21.53,-8 22.88,-18.94c2.61,-14.52 -12.18,-28.3 -26.48,-24.65z" fill="#328bdf"/>
   <path id="svg_4" d="m23.45,22.45c3.4,-1.46 6.01,4.14 2.45,5.59c-3.72,2.09 -6.54,-4.26 -2.45,-5.59z" fill="#328bdf"/>
   <path id="svg_5" d="m40.33,22.34c3.81,-1.07 5.56,5.14 1.64,5.98c-3.89,1.18 -5.34,-5.01 -1.64,-5.98z" fill="#328bdf"/>
   <path id="svg_6" d="m22.18,40.36c7.21,-0.1 14.43,-0.12 21.64,0.01c0.09,0.37 0.27,1.1 0.36,1.46c-7.44,0.23 -14.91,0.23 -22.35,0c0.09,-0.37 0.26,-1.1 0.35,-1.47z" fill="#328bdf"/>
  </g>
 </g>
</svg>