<svg width="17" height="17" viewBox="0 0 17 17" fill="none" xmlns="http://www.w3.org/2000/svg">
<path d="M9.03125 3.71875V5.43203H5.84375C4.96387 5.43203 4.25 6.1459 4.25 7.02578V9.96758C4.25 10.8475 4.96387 11.5613 5.84375 11.5613H9.03125V13.2746C9.03125 14.6891 10.7479 15.4063 11.7506 14.4002L16.5318 9.62227C17.1527 9.00137 17.1527 7.99199 16.5318 7.36777L11.7506 2.58653C10.7512 1.59375 9.03125 2.30098 9.03125 3.71875ZM15.4062 8.5L10.625 13.2813V9.9709H5.84375V7.0291H10.625V3.71875L15.4062 8.5ZM3.1875 2.125H5.97656C6.1957 2.125 6.375 2.3043 6.375 2.52344V3.32031C6.375 3.53946 6.1957 3.71875 5.97656 3.71875H3.1875C2.30762 3.71875 1.59375 4.43262 1.59375 5.3125V11.6875C1.59375 12.5674 2.30762 13.2813 3.1875 13.2813H5.97656C6.1957 13.2813 6.375 13.4605 6.375 13.6797V14.4766C6.375 14.6957 6.1957 14.875 5.97656 14.875H3.1875C1.42773 14.875 0 13.4473 0 11.6875V5.3125C0 3.55274 1.42773 2.125 3.1875 2.125Z" fill="#696969"/>
</svg>
