<svg width="50" height="49" viewBox="0 0 50 49" fill="none" xmlns="http://www.w3.org/2000/svg">
<path d="M20.32 1.39997C29.72 -0.520025 40.03 3.69998 45.15 11.85C51.47 21.19 49.88 34.88 41.54 42.49C30.8 53.33 10.43 50.08 3.76005 36.31C-4.01995 22.86 4.95004 3.82998 20.32 1.39997ZM20.36 3.42998C10.1 5.49998 2.27005 15.58 2.98005 26.04C3.27005 37.05 12.94 46.74 23.96 47.02C34.98 47.79 45.49 39.02 46.84 28.08C49.45 13.56 34.66 -0.220024 20.36 3.42998Z" fill="#BDBDBD"/>
<path d="M15.45 15.45C18.85 13.99 21.46 19.59 17.9 21.04C14.18 23.13 11.36 16.78 15.45 15.45Z" fill="#BDBDBD"/>
<path d="M32.3301 15.34C36.1401 14.27 37.8901 20.48 33.9701 21.32C30.0801 22.5 28.6301 16.31 32.3301 15.34Z" fill="#BDBDBD"/>
</svg>
