<svg width="50" height="49" viewBox="0 0 50 49" fill="none" xmlns="http://www.w3.org/2000/svg">
<path d="M19.38 1.49003C28.56 -0.659973 38.81 2.84003 44.33 10.57C50.59 18.79 50.57 31.06 44.3 39.26C38.2 47.72 26.29 51.22 16.58 47.41C7.03999 44.04 0.40999 34.08 0.98999 23.97C1.16999 13.46 9.14999 3.79003 19.38 1.49003ZM20.27 3.36003C9.66999 5.51003 1.72999 16.3 3.07999 27.08C3.92999 38.42 14.73 47.74 26.07 46.91C37.03 46.63 46.67 37.02 47 26.06C48.27 12.11 33.85 -0.159973 20.27 3.36003Z" fill="#393738"/>
<path d="M15.26 15.22C18.99 13.46 21.53 19.3 17.87 20.93C14.22 22.54 11.68 16.76 15.26 15.22Z" fill="#393738"/>
<path d="M32.14 15.05C36.16 13.54 38.09 20.41 33.92 20.94C30.26 22.15 28.78 16.3 32.14 15.05Z" fill="#393738"/>
<path d="M21.3 30.44C26.86 28.99 33.73 31.12 35.82 36.89C34.58 38.79 33.56 36.2 32.59 35.39C29.08 30.29 19.94 30.55 16.85 35.98C16.09 36.9 15.13 38.64 14.16 36.89C15.17 33.64 18.11 31.36 21.3 30.44Z" fill="#393738"/>
</svg>
