<svg width="65" height="66" xmlns="http://www.w3.org/2000/svg">

 <g>
  <title>background</title>
  <rect fill="none" id="canvas_background" height="68" width="67" y="-1" x="-1"/>
 </g>
 <g>
  <title>Layer 1</title>
  <g id="#ffffffff"/>
  <g id="#c7c7c7ff">
   <path id="svg_1" d="m-121.7,6.35c13.51,-3.13 27.92,7.79 28.71,21.58c1.55,13.15 -9.77,25.95 -22.98,26.15c-12.82,0.91 -24.9,-10.22 -25.11,-23.05c-0.78,-11.53 8.09,-22.6 19.38,-24.68m0.99,2.05c-14.5,1.97 -23.17,20.16 -15.26,32.59c6.26,11.41 23.13,14.66 32.88,5.86c9.26,-7.13 10.74,-22.03 2.94,-30.75c-4.83,-6.05 -12.94,-9.08 -20.56,-7.7z" fill="#c7c7c7"/>
   <path id="svg_2" d="m-47.7,6.35c13.52,-3.13 27.92,7.79 28.71,21.58c1.53,13.16 -9.77,25.96 -22.98,26.15c-12.82,0.91 -24.9,-10.22 -25.1,-23.05c-0.79,-11.52 8.08,-22.61 19.37,-24.68m0.99,2.05c-14.78,1.98 -23.38,20.81 -14.89,33.18c6.59,11.23 23.58,13.91 33.03,4.81c8.84,-7.25 10.04,-21.76 2.41,-30.3c-4.82,-6.04 -12.94,-9.07 -20.55,-7.69z" fill="#c7c7c7"/>
  </g>
  <g id="#393738ff">
   <path id="svg_3" d="m27.38,9.49c9.18,-2.15 19.43,1.35 24.95,9.08c6.26,8.22 6.24,20.49 -0.03,28.69c-6.1,8.46 -18.01,11.96 -27.72,8.15c-9.54,-3.37 -16.17,-13.33 -15.59,-23.44c0.18,-10.51 8.16,-20.18 18.39,-22.48m0.89,1.87c-10.6,2.15 -18.54,12.94 -17.19,23.72c0.85,11.34 11.65,20.66 22.99,19.83c10.96,-0.28 20.6,-9.89 20.93,-20.85c1.27,-13.95 -13.15,-26.22 -26.73,-22.7z" fill="#393738"/>
   <path id="svg_4" d="m23.26,23.22c3.73,-1.76 6.27,4.08 2.61,5.71c-3.65,1.61 -6.19,-4.17 -2.61,-5.71z" fill="#393738"/>
   <path id="svg_5" d="m40.14,23.05c4.02,-1.51 5.95,5.36 1.78,5.89c-3.66,1.21 -5.14,-4.64 -1.78,-5.89z" fill="#393738"/>
   <path id="svg_6" d="m29.3,38.44c5.56,-1.45 12.43,0.68 14.52,6.45c-1.24,1.9 -2.26,-0.69 -3.23,-1.5c-3.51,-5.1 -12.65,-4.84 -15.74,0.59c-0.76,0.92 -1.72,2.66 -2.69,0.91c1.01,-3.25 3.95,-5.53 7.14,-6.45z" fill="#393738"/>
  </g>
 </g>
</svg>