<svg width="19" height="19" viewBox="0 0 19 19" fill="none" xmlns="http://www.w3.org/2000/svg">
<path d="M17.7994 6.19475C18.3816 6.19475 18.3816 5.29352 17.7994 5.29352C17.2172 5.29352 17.219 6.19475 17.7994 6.19475Z" fill="#BDBDBD"/>
<path d="M17.3488 5.74411C17.3488 9.72486 17.3488 13.7056 17.3488 17.6855C17.4993 17.5359 17.6489 17.3863 17.7994 17.2349C12.0162 17.2349 6.23384 17.2349 0.450617 17.2349C0.601123 17.3863 0.750728 17.5359 0.901235 17.6855C0.901235 13.7056 0.901235 9.72396 0.901235 5.74411C0.901235 5.16281 0 5.16281 0 5.74411C0 9.72486 0 13.7056 0 17.6855C0 17.9306 0.205481 18.1361 0.450617 18.1361C6.23384 18.1361 12.0162 18.1361 17.7994 18.1361C18.0445 18.1361 18.25 17.9306 18.25 17.6855C18.25 13.7056 18.25 9.72396 18.25 5.74411C18.25 5.16281 17.3488 5.16281 17.3488 5.74411Z" fill="#BDBDBD"/>
<path d="M0.599337 6.43357C6.10498 10.189 11.6142 13.9436 17.1217 17.699C17.6029 18.0271 18.0517 17.2457 17.5759 16.9212C12.0694 13.1658 6.561 9.41035 1.05356 5.6558C0.572298 5.32685 0.122584 6.10822 0.599337 6.43357Z" fill="#BDBDBD"/>
<path d="M17.3424 5.97217C11.7124 9.54105 6.08241 13.1108 0.453295 16.6815C-0.0360753 16.9916 0.415441 17.772 0.907515 17.4584C6.53753 13.8886 12.1675 10.3188 17.7967 6.74903C18.286 6.43991 17.8345 5.65944 17.3424 5.97217Z" fill="#BDBDBD"/>
<path d="M0.678688 6.13346C3.55092 4.37335 6.42225 2.61324 9.29449 0.853131C8.99347 1.03788 8.71589 0.751292 9.19445 1.04239C9.49006 1.22174 9.78566 1.40108 10.0813 1.58133C11.1267 2.2167 12.1712 2.85207 13.2167 3.48744C14.6676 4.36975 16.1213 5.25206 17.5732 6.13437C18.0707 6.43718 18.524 5.65761 18.0275 5.3566C15.1237 3.59198 12.2199 1.82646 9.31522 0.0618477C9.18184 -0.0201647 8.99618 -0.0210659 8.861 0.0618477C5.98245 1.82646 3.10301 3.59108 0.224467 5.3566C-0.271212 5.65851 0.181206 6.43808 0.678688 6.13346Z" fill="#BDBDBD"/>
</svg>
