<svg width="17" height="17" viewBox="0 0 17 17" xmlns="http://www.w3.org/2000/svg">
<path d="M4.95832 1.85938V4.51562C4.95832 4.95573 4.60155 5.3125 4.16145 5.3125H0.796875C0.356768 5.3125 0 4.95573 0 4.51562V1.85938C0 1.41927 0.356768 1.0625 0.796875 1.0625H4.16145C4.60155 1.0625 4.95832 1.41927 4.95832 1.85938ZM10.9792 9.82812V7.17188C10.9792 6.73177 10.6224 6.375 10.1823 6.375H6.8177C6.37759 6.375 6.02082 6.73177 6.02082 7.17188V9.82812C6.02082 10.2682 6.37759 10.625 6.8177 10.625H10.1823C10.6224 10.625 10.9792 10.2682 10.9792 9.82812ZM12.0417 1.85938V4.51562C12.0417 4.95573 12.3984 5.3125 12.8386 5.3125H16.2031C16.6432 5.3125 17 4.95573 17 4.51562V1.85938C17 1.41927 16.6432 1.0625 16.2031 1.0625H12.8386C12.3984 1.0625 12.0417 1.41927 12.0417 1.85938ZM10.9792 4.51562V1.85938C10.9792 1.41927 10.6224 1.0625 10.1823 1.0625H6.8177C6.37759 1.0625 6.02082 1.41927 6.02082 1.85938V4.51562C6.02082 4.95573 6.37759 5.3125 6.8177 5.3125H10.1823C10.6224 5.3125 10.9792 4.95573 10.9792 4.51562ZM4.16145 6.375H0.796875C0.356768 6.375 0 6.73177 0 7.17188V9.82812C0 10.2682 0.356768 10.625 0.796875 10.625H4.16145C4.60155 10.625 4.95832 10.2682 4.95832 9.82812V7.17188C4.95832 6.73177 4.60155 6.375 4.16145 6.375ZM0 12.4844V15.1406C0 15.5807 0.356768 15.9375 0.796875 15.9375H4.16145C4.60155 15.9375 4.95832 15.5807 4.95832 15.1406V12.4844C4.95832 12.0443 4.60155 11.6875 4.16145 11.6875H0.796875C0.356768 11.6875 0 12.0443 0 12.4844ZM12.8386 10.625H16.2031C16.6432 10.625 17 10.2682 17 9.82812V7.17188C17 6.73177 16.6432 6.375 16.2031 6.375H12.8386C12.3984 6.375 12.0417 6.73177 12.0417 7.17188V9.82812C12.0417 10.2682 12.3984 10.625 12.8386 10.625ZM12.8386 15.9375H16.2031C16.6432 15.9375 17 15.5807 17 15.1406V12.4844C17 12.0443 16.6432 11.6875 16.2031 11.6875H12.8386C12.3984 11.6875 12.0417 12.0443 12.0417 12.4844V15.1406C12.0417 15.5807 12.3984 15.9375 12.8386 15.9375ZM6.02082 12.4844V15.1406C6.02082 15.5807 6.37759 15.9375 6.8177 15.9375H10.1823C10.6224 15.9375 10.9791 15.5807 10.9791 15.1406V12.4844C10.9791 12.0443 10.6224 11.6875 10.1823 11.6875H6.8177C6.37759 11.6875 6.02082 12.0443 6.02082 12.4844Z"/>
</svg>
