<?xml version="1.0" encoding="utf-8"?>
<!-- Generator: Adobe Illustrator 16.0.0, SVG Export Plug-In . SVG Version: 6.00 Build 0)  -->
<!DOCTYPE svg PUBLIC "-//W3C//DTD SVG 1.0//EN" "http://www.w3.org/TR/2001/REC-SVG-20010904/DTD/svg10.dtd">
<svg version="1.0" id="Layer_1" xmlns="http://www.w3.org/2000/svg" xmlns:xlink="http://www.w3.org/1999/xlink" x="0px" y="0px"
	 width="25.54px" height="18.822px" viewBox="111.229 5.089 25.54 18.822" enable-background="new 111.229 5.089 25.54 18.822"
	 xml:space="preserve">
<g>
	<g>
		<g>
			<g>
				<path fill="#BDBDBD" d="M120.737,13.393c-0.174,0-0.348,0.001-0.521,0.002c-0.645,0.002-0.645,1,0,1
					c1.262,0,2.521-0.001,3.784-0.002c-0.167-0.167-0.333-0.333-0.5-0.5c0,3.173,0,6.347,0,9.521c0.167-0.166,0.333-0.332,0.5-0.5
					c-4.09,0-8.181,0-12.271,0c0.167,0.168,0.333,0.334,0.5,0.5c0-3.174,0-6.348,0-9.521c-0.167,0.167-0.333,0.333-0.5,0.5
					c1.362,0.001,2.724,0.002,4.086,0.004c0.645,0,0.645-1,0-1c-1.362-0.001-2.725-0.002-4.086-0.004c-0.272,0-0.5,0.228-0.5,0.5
					c0,3.173,0,6.347,0,9.521c0,0.271,0.228,0.5,0.5,0.5c4.09,0,8.181,0,12.271,0c0.272,0,0.5-0.229,0.5-0.5
					c0-3.174,0-6.348,0-9.521c0-0.272-0.228-0.5-0.5-0.5c-1.263,0-2.522,0.001-3.784,0.002c0,0.333,0,0.667,0,1
					c0.174,0,0.348-0.001,0.521-0.002C121.381,14.391,121.381,13.391,120.737,13.393L120.737,13.393z"/>
			</g>
		</g>
		<g>
			<g>
				<path fill="#BDBDBD" d="M116.168,13.543c-2.151-2.14-1.826-7.191,1.848-7.434c1.596-0.105,2.645,1.453,3.064,2.767
					c0.523,1.635-0.03,3.484-1.219,4.666c-0.459,0.455,0.248,1.162,0.707,0.707c2.813-2.797,1.968-8.84-2.555-9.139
					c-1.762-0.116-3.386,1.488-3.888,3.057c-0.692,2.162-0.298,4.46,1.334,6.084C115.918,14.706,116.626,13.999,116.168,13.543
					L116.168,13.543z"/>
			</g>
		</g>
		<path fill="none" stroke="#BDBDBD" stroke-miterlimit="10" d="M119.776,13.893"/>
	</g>
	<g>
		<g>
			<g>
				<path fill="#BDBDBD" d="M133.007,13.377c-0.174,0-0.348,0.001-0.52,0.002c-0.646,0.002-0.646,1,0,1
					c1.26,0,2.521-0.001,3.783-0.002c-0.168-0.167-0.334-0.333-0.5-0.5c0,3.172,0,6.346,0,9.52c0.166-0.166,0.332-0.332,0.5-0.5
					c-4.09,0-8.182,0-12.272,0c0.167,0.168,0.333,0.334,0.5,0.5c0-3.174,0-6.348,0-9.52c-0.167,0.167-0.333,0.333-0.5,0.5
					c1.362,0.001,2.725,0.002,4.086,0.004c0.646,0,0.646-1,0-1c-1.361-0.001-2.725-0.002-4.086-0.004c-0.271,0-0.5,0.228-0.5,0.5
					c0,3.172,0,6.346,0,9.52c0,0.273,0.229,0.5,0.5,0.5c4.09,0,8.182,0,12.272,0c0.271,0,0.5-0.227,0.5-0.5c0-3.174,0-6.348,0-9.52
					c0-0.272-0.229-0.5-0.5-0.5c-1.262,0-2.523,0.001-3.783,0.002c0,0.333,0,0.667,0,1c0.172,0,0.346-0.001,0.52-0.002
					C133.651,14.375,133.651,13.375,133.007,13.377L133.007,13.377z"/>
			</g>
		</g>
		<g>
			<g>
				<path fill="#BDBDBD" d="M128.44,13.527c-2.156-2.137-1.824-7.191,1.846-7.434c1.596-0.105,2.645,1.452,3.064,2.767
					c0.521,1.634-0.029,3.485-1.219,4.665c-0.457,0.455,0.25,1.162,0.707,0.707c2.816-2.797,1.967-8.84-2.555-9.139
					c-1.762-0.116-3.385,1.488-3.887,3.057c-0.691,2.161-0.301,4.463,1.334,6.084C128.19,14.688,128.899,13.982,128.44,13.527
					L128.44,13.527z"/>
			</g>
		</g>
		<path fill="none" stroke="#BDBDBD" stroke-miterlimit="10" d="M132.046,13.877"/>
	</g>
</g>
</svg>
