<?xml version="1.0" encoding="utf-8"?>
<!-- Generator: Adobe Illustrator 16.0.0, SVG Export Plug-In . SVG Version: 6.00 Build 0)  -->
<!DOCTYPE svg PUBLIC "-//W3C//DTD SVG 1.0//EN" "http://www.w3.org/TR/2001/REC-SVG-20010904/DTD/svg10.dtd">
<svg version="1.0" id="Layer_1" xmlns="http://www.w3.org/2000/svg" xmlns:xlink="http://www.w3.org/1999/xlink" x="0px" y="0px"
	 width="28.063px" height="18.284px" viewBox="109.968 5.358 28.063 18.284" enable-background="new 109.968 5.358 28.063 18.284"
	 xml:space="preserve">
<g>
	<g>
		<g>
			<g>
				<path fill="#BDBDBD" d="M118.785,15.875c0-3.34,0-6.681,0-10.021c-0.166,0.167-0.332,0.333-0.5,0.5c6.418,0,12.834,0,19.25,0
					c-0.166-0.167-0.332-0.333-0.5-0.5c0,4.417,0,8.834,0,13.251c0.168-0.166,0.334-0.332,0.5-0.5c-5.125,0-10.25,0-15.375,0
					c-0.646,0-0.646,1,0,1c5.125,0,10.25,0,15.375,0c0.272,0,0.5-0.229,0.5-0.5c0-4.417,0-8.834,0-13.251c0-0.272-0.228-0.5-0.5-0.5
					c-6.416,0-12.832,0-19.25,0c-0.271,0-0.5,0.228-0.5,0.5c0,3.34,0,6.681,0,10.021C117.785,16.521,118.785,16.521,118.785,15.875
					L118.785,15.875z"/>
			</g>
		</g>
		<g>
			<g>
				<path fill="#BDBDBD" d="M118.451,6.619c6.109,4.167,12.222,8.333,18.332,12.5c0.535,0.365,1.033-0.502,0.504-0.863
					c-6.109-4.167-12.221-8.333-18.332-12.5C118.421,5.392,117.922,6.258,118.451,6.619L118.451,6.619z"/>
			</g>
		</g>
		<g>
			<g>
				<path fill="#BDBDBD" d="M137.029,6.107c-4.994,3.167-9.988,6.333-14.982,9.5c-0.543,0.344-0.042,1.211,0.504,0.863
					c4.995-3.168,9.988-6.334,14.982-9.501C138.076,6.626,137.574,5.76,137.029,6.107L137.029,6.107z"/>
			</g>
		</g>
	</g>
	<g>
		<g>
			<path fill="#BDBDBD" d="M110.826,18.498c1.791-1.668,3.582-3.338,5.375-5.008c-0.285-0.118-0.569-0.236-0.854-0.354
				c0,1,0,2.003,0,3.005c0,0.271,0.228,0.504,0.5,0.5c2.042-0.02,4.083-0.037,6.125-0.057c-0.167-0.168-0.333-0.334-0.5-0.5
				c0,1.459,0,2.92,0,4.381c0.167-0.168,0.333-0.334,0.5-0.5c-2.042,0-4.083,0-6.125,0c-0.276,0-0.494,0.229-0.5,0.5
				c-0.021,0.896-0.042,1.791-0.062,2.688c0.283-0.117,0.568-0.234,0.854-0.354c-1.771-1.67-3.542-3.34-5.312-5.008
				c-0.469-0.441-1.176,0.264-0.707,0.707c1.771,1.668,3.543,3.338,5.312,5.008c0.318,0.301,0.844,0.088,0.854-0.354
				c0.021-0.896,0.043-1.793,0.062-2.689c-0.167,0.168-0.333,0.334-0.5,0.5c2.042,0,4.083,0,6.125,0c0.271,0,0.5-0.227,0.5-0.5
				c0-1.459,0-2.92,0-4.381c0-0.27-0.229-0.502-0.5-0.5c-2.042,0.02-4.083,0.039-6.125,0.057c0.167,0.168,0.333,0.334,0.5,0.5
				c0-1,0-2.002,0-3.004c0-0.448-0.539-0.646-0.854-0.354c-1.793,1.67-3.584,3.34-5.375,5.008
				C109.646,18.232,110.355,18.939,110.826,18.498z"/>
		</g>
	</g>
</g>
</svg>
