<?xml version="1.0" encoding="utf-8"?>
<!-- Generator: Adobe Illustrator 16.0.0, SVG Export Plug-In . SVG Version: 6.00 Build 0)  -->
<!DOCTYPE svg PUBLIC "-//W3C//DTD SVG 1.0//EN" "http://www.w3.org/TR/2001/REC-SVG-20010904/DTD/svg10.dtd">
<svg version="1.0" id="Layer_1" xmlns="http://www.w3.org/2000/svg" xmlns:xlink="http://www.w3.org/1999/xlink" x="0px" y="0px"
	 width="17.376px" height="19.758px" viewBox="115.312 4.621 17.376 19.758" enable-background="new 115.312 4.621 17.376 19.758"
	 xml:space="preserve">
<g>
	<g>
		<path fill="#A3CA51" d="M115.315,5.126c0,6.25,0,12.5,0,18.75c0,0.383,0.424,0.621,0.752,0.434
			c5.458-3.125,10.917-6.25,16.375-9.376c0.325-0.187,0.325-0.678,0-0.864c-5.458-3.125-10.917-6.25-16.375-9.375
			c-0.56-0.322-1.063,0.542-0.504,0.863c5.458,3.125,10.917,6.25,16.375,9.376c0-0.288,0-0.576,0-0.864
			c-5.458,3.125-10.917,6.25-16.375,9.375c0.251,0.145,0.501,0.289,0.752,0.432c0-6.25,0-12.5,0-18.75
			C116.315,4.481,115.315,4.481,115.315,5.126z"/>
	</g>
</g>
</svg>
