<?xml version="1.0" encoding="utf-8"?>
<!-- Generator: Adobe Illustrator 16.0.0, SVG Export Plug-In . SVG Version: 6.00 Build 0)  -->
<!DOCTYPE svg PUBLIC "-//W3C//DTD SVG 1.0//EN" "http://www.w3.org/TR/2001/REC-SVG-20010904/DTD/svg10.dtd">
<svg version="1.0" id="Layer_1" xmlns="http://www.w3.org/2000/svg" xmlns:xlink="http://www.w3.org/1999/xlink" x="0px" y="0px"
	 width="18.878px" height="18.879px" viewBox="114.561 5.061 18.878 18.879" enable-background="new 114.561 5.061 18.878 18.879"
	 xml:space="preserve">
<g>
	<g>
		<path fill="#E21037" d="M132.938,22.938c-5.959,0-11.917,0-17.875,0c0.167,0.168,0.333,0.334,0.5,0.5c0-5.959,0-11.916,0-17.875
			c-0.167,0.167-0.333,0.333-0.5,0.5c5.958,0,11.917,0,17.875,0c-0.168-0.167-0.334-0.333-0.5-0.5c0,5.958,0,11.916,0,17.875
			c0,0.646,1,0.646,1,0c0-5.959,0-11.916,0-17.875c0-0.272-0.229-0.5-0.5-0.5c-5.959,0-11.917,0-17.875,0
			c-0.272,0-0.5,0.228-0.5,0.5c0,5.958,0,11.916,0,17.875c0,0.273,0.228,0.5,0.5,0.5c5.958,0,11.917,0,17.875,0
			C133.582,23.938,133.582,22.938,132.938,22.938z"/>
	</g>
</g>
</svg>
