<svg width="17" height="17" viewBox="0 0 17 17" xmlns="http://www.w3.org/2000/svg">
<path d="M15.4062 1.0625H1.59375C0.713535 1.0625 0 1.77604 0 2.65625V14.3438C0 15.224 0.713535 15.9375 1.59375 15.9375H15.4062C16.2865 15.9375 17 15.224 17 14.3438V2.65625C17 1.77604 16.2865 1.0625 15.4062 1.0625ZM15.207 14.3438H1.79297C1.74013 14.3438 1.68946 14.3228 1.6521 14.2854C1.61474 14.248 1.59375 14.1974 1.59375 14.1445V2.85547C1.59375 2.80263 1.61474 2.75196 1.6521 2.7146C1.68946 2.67724 1.74013 2.65625 1.79297 2.65625H15.207C15.2599 2.65625 15.3105 2.67724 15.3479 2.7146C15.3853 2.75196 15.4062 2.80263 15.4062 2.85547V14.1445C15.4062 14.1974 15.3853 14.248 15.3479 14.2854C15.3105 14.3228 15.2599 14.3438 15.207 14.3438ZM13.8125 11.2891V12.0859C13.8125 12.306 13.6341 12.4844 13.4141 12.4844H6.77344C6.5534 12.4844 6.375 12.306 6.375 12.0859V11.2891C6.375 11.069 6.5534 10.8906 6.77344 10.8906H13.4141C13.6341 10.8906 13.8125 11.069 13.8125 11.2891ZM13.8125 8.10156V8.89844C13.8125 9.11847 13.6341 9.29688 13.4141 9.29688H6.77344C6.5534 9.29688 6.375 9.11847 6.375 8.89844V8.10156C6.375 7.88153 6.5534 7.70312 6.77344 7.70312H13.4141C13.6341 7.70312 13.8125 7.88153 13.8125 8.10156ZM13.8125 4.91406V5.71094C13.8125 5.93097 13.6341 6.10938 13.4141 6.10938H6.77344C6.5534 6.10938 6.375 5.93097 6.375 5.71094V4.91406C6.375 4.69403 6.5534 4.51562 6.77344 4.51562H13.4141C13.6341 4.51562 13.8125 4.69403 13.8125 4.91406ZM5.44531 5.3125C5.44531 5.97264 4.91014 6.50781 4.25 6.50781C3.58986 6.50781 3.05469 5.97264 3.05469 5.3125C3.05469 4.65236 3.58986 4.11719 4.25 4.11719C4.91014 4.11719 5.44531 4.65236 5.44531 5.3125ZM5.44531 8.5C5.44531 9.16014 4.91014 9.69531 4.25 9.69531C3.58986 9.69531 3.05469 9.16014 3.05469 8.5C3.05469 7.83986 3.58986 7.30469 4.25 7.30469C4.91014 7.30469 5.44531 7.83986 5.44531 8.5ZM5.44531 11.6875C5.44531 12.3476 4.91014 12.8828 4.25 12.8828C3.58986 12.8828 3.05469 12.3476 3.05469 11.6875C3.05469 11.0274 3.58986 10.4922 4.25 10.4922C4.91014 10.4922 5.44531 11.0274 5.44531 11.6875Z"/>
</svg>
