<svg width="290" height="130" viewBox="0 0 290 130" fill="none" xmlns="http://www.w3.org/2000/svg">
<mask id="mask0" mask-type="alpha" maskUnits="userSpaceOnUse" x="0" y="0" width="290" height="130">
<path d="M0 0H290V130H0V0Z" fill="#273547"/>
</mask>
<g mask="url(#mask0)">
<rect width="290" height="130" fill="#273547" fill-opacity="0.71"/>
<path d="M32.8037 -7.66257C41.0741 -11.4925 49.8961 -14.7296 58.9581 -15.887C66.4415 -15.509 68.3496 -7.44025 72.3167 -2.71342C78.0152 -1.75061 84.2464 -2.30618 89.2951 0.844564C95.7805 3.95209 95.681 12.7602 102.064 16.0032C109.514 20.3217 108.44 30.2636 112.808 36.7931C119.964 37.197 128.803 37.8635 129.567 46.6739C132.379 61.7358 145.284 76.992 137.232 92.3968C136.212 98.7171 140.338 104.634 140.534 110.943C136.706 118.448 129.389 123.839 126.254 131.789C123.347 137.485 123.96 145.001 118.174 149.035C110.641 153.703 112.979 165.458 104.158 168.634C97.5072 171.567 88.5008 174.498 82.6336 168.785C78.1365 163.275 74.4701 156.963 72.246 150.24C82.5986 141.92 81.1591 159.088 84.6683 164.535C92.5312 170.306 109.107 164.101 108.054 153.186C101.143 154.555 86.0137 166.395 88.4974 152.285C98.5261 149.65 109.402 148.896 118.344 143.136C118.539 141.036 118.14 139.049 117.148 137.175C106.212 139.354 95.8743 146.691 84.4087 144.3C78.2043 142.627 68.2126 149.546 68.3771 139.332C76.9414 132.677 87.0921 143.441 96.3848 138.624C105.333 134.552 118.411 134.807 123.786 125.736C119.995 124.433 115.205 123.804 114.835 119.018C120.711 113.977 132.47 117.841 135.358 109.585C136.784 98.4077 124.827 93.4894 121.755 84.0509C119.798 77.9525 111.777 67.5909 123.48 67.5633C126.882 73.9008 125.757 81.7621 130.045 87.7887C133.34 87.2585 137.51 84.7111 135.6 81.0001C132.349 68.8312 128.288 56.8254 123.84 45.0484C123.295 40.6255 118.468 42.8995 115.487 43.0417C116.704 49.26 119.092 55.1355 120.538 61.2791C108.349 67.2685 94.651 69.2936 82.2979 74.9094C80.9068 80.3536 84.139 85.7896 87.9456 89.4492C94.4167 88.8557 100.709 86.7531 106.655 84.1733C105.089 78.9448 101.247 72.1612 109.98 71.926C115.421 80.8936 113.766 92.6548 120.067 101.361C123.637 101.922 129.917 98.0516 130.913 103.08C132.817 107.221 126.906 108.689 123.767 108.863C115.065 110.798 108.22 104.347 100.384 102.252C92.2318 102.786 84.2503 105.829 76.9535 109.421C71.2594 115.787 79.8251 122.163 85.6151 124.175C92.7769 128.384 100.94 124.162 107.823 121.234C101.547 110.871 85.5564 127.268 85.333 113.496C95.0698 108.046 112.733 112.153 112.931 124.691C102.877 128.984 90.726 134.574 80.8382 127.308C72.4109 124.755 65.1718 114.728 72.4849 107.078C84.8766 99.719 101.137 93.515 114.112 102.437C112.751 97.8334 111.282 93.2243 109.168 88.8882C100.711 89.9693 91.4938 97.7746 83.3402 92.9129C78.5376 86.3424 74.9993 78.6245 73.1773 70.6904C86.5288 68.2495 99.8575 65.2256 112.335 59.732C112.052 46.5494 105.427 34.2235 101.537 21.7751C94.3631 22.5988 87.4245 24.9743 80.959 28.1517C81.8397 35.8446 87.9085 41.9799 88.0635 49.768C85.3856 50.2587 80.6832 53.0416 80.8457 48.4682C78.7676 36.159 73.7051 24.6241 71.2852 12.4269C74.9987 9.64224 84.8518 2.30058 86.1994 9.94223C90.4959 17.0859 73.2982 12.6021 77.6969 19.2235C79.3297 26.3238 88.5923 19.2978 93.226 18.1662C93.5225 7.97009 83.6466 -0.093923 73.4778 3.9102C63.6666 7.59356 67.6562 -9.94137 59.3997 -10.4325C50.3606 -8.69207 41.1456 -6.14071 33.2016 -1.37927C31.1099 5.00717 36.6968 10.5063 38.1261 16.472C35.6225 17.9439 32.614 20.7622 30.0354 17.9626C27.8753 9.89495 24.2004 -1.76885 32.8037 -7.66257Z" fill="#273547"/>
<path d="M-20.0343 10.9551C-11.5606 5.30749 -1.07284 2.72592 8.84579 0.717684C18.4831 1.95758 21.5076 13.3051 25.0816 20.7466C11.5662 31.6706 19.8703 2.2767 6.55531 6.49737C-0.782196 8.16882 -8.16497 10.3438 -14.8439 13.8966C-22.8824 19.0758 -9.03995 31.48 -19.7013 34.3017C-29.6702 37.5684 -32.0209 49.5168 -26.7345 57.4355C-20.3437 55.8911 -7.55654 54.5514 -13.7 45.814C-17.6501 46.7215 -21.5704 50.2866 -25.6735 48.3531C-28.7007 40.1419 -17.9953 39.4437 -12.3452 39.4247C-6.04879 51.0032 -3.36054 64.2119 2.16757 76.205C4.15385 79.4431 -2.13564 78.4092 -3.91305 79.3378C-7.35575 72.8103 -6.48629 64.7476 -9.92114 58.1156C-17.1305 59.2157 -24.2053 61.4322 -30.7286 64.6897C-27.7913 77.2468 -23.6795 89.6022 -18.7105 101.493C-4.96313 100.389 7.50286 93.9624 19.8241 88.3774C25.9704 91.4128 24.1731 100.879 25.957 106.708C27.9004 119.184 10.7545 118.837 2.86509 123.315C3.60105 127.615 4.98774 131.782 6.52724 135.839C13.1925 122.619 28.6515 118.653 42.3384 116.529C53.2638 117.978 53.7196 131.369 48.0257 138.569C44.1187 150.132 30.8449 152.425 20.3012 154.964C14.4335 144.629 25.169 129.2 36.9979 130.455C43.0552 141.175 20.7405 136.862 23.3521 148.874C36.7436 149.25 51.6863 132.992 43.3209 121.196C34.4548 122.309 24.525 124.219 17.5613 129.983C12.5611 139.237 6.82499 150.543 -5.53856 150.93C-10.1112 144.996 -2.61654 142.072 2.1203 140.357C1.20286 130.05 -6.34859 121.122 -7.48823 111.356C-2.37416 104.183 1.12659 113.583 2.73382 118.166C9.07791 116.8 15.4321 114.759 21.0124 111.383C22.1808 106.093 19.9787 100.849 17.2349 96.454C3.67362 99.0247 -8.81739 105.439 -22.2901 108.408C-24.899 102.564 -26.4626 96.317 -29.0145 90.4546C-32.0869 91.217 -36.0595 93.2111 -34.9814 96.9503C-31.9343 109.329 -27.9277 121.556 -23.0767 133.343C-21.7216 137.094 -17.0401 136.557 -13.7743 136.77C-14.8871 129.01 -20.9477 122.323 -20.357 114.372C-12.5599 108.905 -11.9956 120.509 -10.6319 125.376C-6.21991 135.76 -15.3423 148.604 -5.226 157.017C1.76679 159.042 8.42329 152.341 15.281 150.745C19.2415 155.067 15.0854 158.811 11.9987 162.225C22.5744 166.008 33.276 158.368 43.4849 155.898C52.7643 153.672 54.774 140.939 64.6795 140.238C71.5797 146.793 60.2333 149.514 56.3144 153.404C47.9364 162.36 34.854 162.798 24.1935 167.676C31.6495 182.601 49.7043 158.258 59.7759 165.443C60.9292 174.289 47.6659 171.224 42.2236 174.636C47.1118 183.072 58.7675 179.884 64.937 174.584C70.0763 168.258 62.9223 161.826 61.7246 155.541C60.5839 151.354 68.8448 149.42 69.4132 153.978C70.9828 162.361 74.6636 173.209 67.0044 179.994C59.8712 184.022 49.7511 188.56 42.7593 182.238C36.5049 176.306 26.2377 179.304 20.569 172.529C12.5306 165.003 0.842556 164.435 -8.96067 160.379C-13.2358 155.61 -13.1003 148.195 -17.4022 143.537C-33.8256 136.54 -31.7894 115.675 -38.8208 101.853C-43.3406 94.4772 -37.1447 88.6801 -31.5488 84.2606C-31.5687 75.8581 -39.1408 67.8943 -34.7912 59.6073C-32.0978 53.8381 -36.4121 47.4741 -33.6497 41.723C-31.5579 36.1712 -26.4226 32.656 -22.5853 28.3241C-21.9326 22.5517 -25.0169 15.642 -20.0343 10.9551Z" fill="#273547"/>
<path d="M-9.73081 17.7591C-4.90578 14.7731 0.711102 13.1769 6.28087 12.2069C10.7404 15.1638 17.4072 26.3969 8.03432 26.8622C3.40666 28.0121 5.71432 15.9964 0.367842 19.3162C-7.49092 20.0386 -2.97558 28.5561 0.943848 31.405C8.22218 36.6756 16.9079 30.3273 24.6341 29.2004C28.9585 37.0068 31.2155 45.7553 33.3043 54.3757C22.7022 48.1379 11.108 48.883 -0.174506 53.6593C-2.61248 49.8771 -10.4816 41.1351 -3.17845 39.2306C1.90493 35.8137 2.05956 44.0499 4.60288 46.6778C11.7737 45.2036 19.0102 43.5448 26.2803 45.1329C24.567 40.4819 23.6103 32.814 16.8783 36.9747C3.95291 43.796 -13.7733 30.3841 -9.73081 17.7591Z" fill="#273547"/>
<path d="M39.6164 1.44588C45.2654 -1.46401 51.4097 -3.37565 57.6561 -4.52667C68.1099 9.15084 57.7661 26.6097 41.4722 29.1189C40.5635 44.0562 52.6923 31.0822 60.4174 29.1819C66.8161 27.5331 56.9564 19.647 63.0487 16.999C71.7576 15.0207 73.5998 33.0268 64.0721 32.8913C52.969 34.4935 47.7859 43.7662 43.3021 52.6061C40.0882 43.825 36.6923 35.0018 34.9395 25.8029C41.4985 22.2691 51.1151 22.3552 54.8944 15.151C58.7388 9.4933 55.3288 -2.19623 47.5231 4.27088C48.5635 8.8573 50.9611 14.5056 44.2159 15.7387C38.9302 13.2764 40.1241 6.2679 39.6164 1.44588Z" fill="#273547"/>
<path d="M92.7844 29.2652C101.863 29.9552 99.7007 45.7512 102.846 52.7833C96.4159 56.1325 89.3389 58.9198 82.0456 59.3144C73.8633 58.9212 70.328 50.5712 64.0394 47.3584C53.5121 48.7924 56.6495 63.5643 48.3575 67.5846C46.3938 66.2124 42.47 64.5051 44.8435 61.6098C50.5625 52.3041 56.6477 40.3943 69.5269 40.4904C72.3013 49.5987 80.9842 58.2573 91.4311 52.92C105.766 50.4011 83.3071 35.0585 92.7844 29.2652Z" fill="#273547"/>
<path d="M-22.6429 68.1892C-6.36316 57.7439 -19.4748 94.0273 -3.33258 83.9325C7.95101 82.0471 8.52598 70.0698 5.52659 61.6867C16.41 53.254 29.435 59.6346 39.9563 64.5348C42.3998 67.9488 39.3909 71.2152 35.509 70.9194C28.2774 67.5881 21.2503 58.9775 12.3868 63.3072C16.7968 79.3317 2.14569 90.3835 -13.032 91.1016C-16.5041 83.5861 -19.8423 75.9655 -22.6429 68.1892Z" fill="#273547"/>
<path d="M37.9987 85.5777C45.4889 80.8428 59.8552 74.1194 65.2232 84.5972C68.21 90.4394 76.7243 101.535 64.5308 101.927C62.3092 96.3026 61.6946 90.1922 59.435 84.58C53.1603 83.3988 46.6687 85.7907 41.318 88.9694C36.8612 96.4159 54.5071 108.877 39.7182 110.139C37.5888 102.55 32.7888 92.8434 37.9987 85.5777Z" fill="#273547"/>
<path d="M49.2906 89.9404C51.9941 89.8485 55.8308 89.365 55.6112 93.1223C58.099 106.682 62.6046 119.662 68.3774 132.145C72.104 136.523 60.4896 139.901 60.972 134.571C58.6092 123.19 56.0334 111.736 50.6455 101.326C49.3257 97.7474 45.6732 93.4673 49.2906 89.9404Z" fill="#273547"/>
</g>
</svg>
